<?xml version="1.0" standalone="no"?>
<!DOCTYPE svg PUBLIC "-//W3C//DTD SVG 20010904//EN"
 "http://www.w3.org/TR/2001/REC-SVG-20010904/DTD/svg10.dtd">
<svg version="1.0" xmlns="http://www.w3.org/2000/svg"
 width="500.000000pt" height="500.000000pt" viewBox="0 0 500.000000 500.000000"
 preserveAspectRatio="xMidYMid meet">

<g transform="translate(0.000000,500.000000) scale(0.100000,-0.100000)"
fill="#000000" stroke="none">
<path d="M709 4417 c-47 -31 -71 -81 -66 -137 3 -31 115 -294 372 -870 202
-454 427 -960 500 -1125 73 -165 157 -352 185 -415 29 -63 121 -270 205 -460
326 -737 527 -1186 538 -1198 25 -30 90 -54 134 -49 93 10 77 -21 434 812 217
508 331 762 345 771 11 8 157 72 325 143 721 306 1175 504 1193 519 45 41 60
126 32 180 -31 59 21 34 -991 482 -515 228 -947 420 -1410 627 -203 91 -440
196 -525 233 -85 37 -290 128 -455 203 -749 336 -742 334 -816 284z"/>
</g>
</svg>
