<?xml version="1.0" standalone="no"?>
<!DOCTYPE svg PUBLIC "-//W3C//DTD SVG 20010904//EN"
 "http://www.w3.org/TR/2001/REC-SVG-20010904/DTD/svg10.dtd">
<svg version="1.0" xmlns="http://www.w3.org/2000/svg"
 width="512.000000pt" height="512.000000pt" viewBox="0 0 512.000000 512.000000"
 preserveAspectRatio="xMidYMid meet">

<g transform="translate(0.000000,512.000000) scale(0.100000,-0.100000)"
fill="#000000" stroke="none">
<path d="M555 4676 c-40 -17 -95 -72 -111 -113 -34 -80 -59 -7 731 -2154 410
-1113 757 -2048 772 -2077 62 -130 235 -158 336 -54 35 36 51 78 276 755 167
500 253 741 282 796 106 199 274 363 479 466 30 15 377 135 770 266 674 226
716 241 752 276 96 94 78 261 -35 327 -23 13 -959 362 -2081 775 -2177 802
-2090 772 -2171 737z m1980 -1121 c803 -296 1471 -542 1485 -548 21 -8 -33
-29 -375 -143 -552 -185 -705 -264 -915 -474 -210 -210 -289 -363 -474 -915
-114 -342 -135 -396 -143 -375 -14 34 -1082 2935 -1099 2982 l-13 37 37 -13
c21 -8 694 -255 1497 -551z"/>
</g>
</svg>
